# xmcd CD database file
#
# Track frame offsets:
#	150
#	18509
#	31719
#	50190
#	68916
#	84331
#	101885
#	125030
#	141783
#	157384
#	171574
#	184920
#	199655
#
# Disc length: 3009 seconds
#
# Revision: 9
# Processed by: cddbd v1.4PL0 Copyright (c) Steve Scherf et al.
# Submitted via: CDex 1.40Release
#
DISCID=c30bbf0d
DTITLE=Alan Jackson - Drive
DYEAR=2002
DGENRE=Country
TTITLE0=Drive (For Daddy Gene)
TTITLE1=A Little Bluer Than That
TTITLE2=Bring On The Night
TTITLE3=Work In Progress
TTITLE4=The Sounds
TTITLE5=Designated Drinker (With George Strait)
TTITLE6=Where Were You (When The World Stopped Turning)
TTITLE7=That'd Be Alright
TTITLE8=Once In A Lifetime Love
TTITLE9=When Love Comes Around
TTITLE10=I Slipped And Fell In Love
TTITLE11=First Love
TTITLE12=Where Were You (When The World Stopped Turning) (Live)
EXTD=YEAR: 2002 ID3G: 2
EXTT0=
EXTT1=
EXTT2=
EXTT3=
EXTT4=
EXTT5=
EXTT6=
EXTT7=
EXTT8=
EXTT9=
EXTT10=
EXTT11=
EXTT12=
PLAYORDER=
